<?xml version="1.0" encoding="UTF-8" standalone="no"?><svg xmlns="http://www.w3.org/2000/svg" xmlns:xlink="http://www.w3.org/1999/xlink" contentScriptType="application/ecmascript" contentStyleType="text/css" height="912px" preserveAspectRatio="none" style="width:1188px;height:912px;background:#EEEBDC;" version="1.1" viewBox="0 0 1188 912" width="1188px" zoomAndPan="magnify"><defs/><g><!--cluster meta_openharmonyn--><polygon fill="#EEEBDC" points="30,223.5,30,223.7102,39.9865,223.0857,49.973,223.6933,59.9595,223.8997,69.9459,222.7866,79.9324,223.4223,89.9189,223.0735,99.9054,223.1165,109.8919,223.4318,119.8784,222.8086,129.8649,224.0536,139.8514,222.8697,149.8378,223.3022,159.8243,223.9319,169.8108,223.4142,179.7973,223.5682,189.7838,223.4681,199.7703,223.6785,209.7568,223.7391,219.7432,224.0857,229.7297,224.1711,239.7162,224.1793,249.7027,223.7546,259.6892,223.9636,269.6757,224.2022,279.6622,222.7788,289.6486,224.1785,299.6351,223.2035,309.6216,224.0338,319.6081,223.005,329.5946,223.4315,339.5811,224.2416,349.5676,223.4513,359.5541,223.6053,369.5405,223.8386,379.527,223.9162,389.5135,223.4961,399.5,223.7872,409.4865,222.9276,419.473,223.7844,429.4595,224.0482,439.4459,223.9445,449.4324,224.113,459.4189,223.0169,469.4054,222.8478,479.3919,222.8786,489.3784,223.4411,499.3649,223.3035,509.3514,224.1814,519.3378,223.3253,529.3243,223.1569,539.3108,223.7283,549.2973,222.8332,559.2838,222.9809,569.2703,224.149,579.2568,223.9357,589.2432,224.2345,599.2297,223.1782,609.2162,223.8192,619.2027,224.0904,629.1892,223.0276,639.1757,223.4041,649.1622,223.626,659.1486,224.1518,669.1351,223.4958,679.1216,223.9626,689.1081,222.9462,699.0946,222.8227,709.0811,224.0036,719.0676,222.7831,729.0541,224.009,739.0405,223.7066,749.027,223.2321,759.0135,223.1462,769,223.5,769.4588,223.5,768.7007,233.5397,769.5919,243.5794,768.4473,253.619,769.6174,263.6587,769.4843,273.6984,769.245,283.7381,769.0472,293.7778,769.7266,303.8175,769.6136,313.8571,769.1693,323.8968,769.2682,333.9365,768.8697,343.9762,769.7165,354.0159,769.1549,364.0556,769.1726,374.0952,768.3916,384.1349,768.5948,394.1746,769.5307,404.2143,769.4298,414.254,768.9571,424.2937,768.6778,434.3333,768.7811,444.373,768.3138,454.4127,769.4147,464.4524,769.7396,474.4921,769.5264,484.5317,769.6949,494.5714,768.8633,504.6111,769.0872,514.6508,768.6124,524.6905,769.284,534.7302,769.2468,544.7698,769.5524,554.8095,768.7703,564.8492,768.8656,574.8889,769.4435,584.9286,769.5673,594.9683,768.4875,605.0079,768.8061,615.0476,769.1493,625.0873,768.3892,635.127,769.3534,645.1667,769.258,655.2063,768.8992,665.246,769.1422,675.2857,769.7287,685.3254,768.6871,695.3651,769.315,705.4048,769.2856,715.4444,769.1158,725.4841,769.1409,735.5238,769.1135,745.5635,768.3758,755.6032,768.5992,765.6429,768.5385,775.6825,769.0638,785.7222,769.0881,795.7619,769.1617,805.8016,768.709,815.8413,768.9325,825.881,768.8798,835.9206,769.5769,845.9603,769,856,769,856.4266,759.0135,855.5145,749.027,855.9271,739.0405,855.4228,729.0541,856.2884,719.0676,856.6085,709.0811,856.5446,699.0946,855.5644,689.1081,856.464,679.1216,855.2572,669.1351,856.2002,659.1486,855.7007,649.1622,856.0967,639.1757,856.2403,629.1892,856.4721,619.2027,855.2801,609.2162,856.4755,599.2297,856.1782,589.2432,856.3553,579.2568,856.7478,569.2703,856.0055,559.2838,856.1753,549.2973,856.2134,539.3108,856.1972,529.3243,855.9992,519.3378,856.7107,509.3514,855.3903,499.3649,856.5653,489.3784,855.376,479.3919,855.4597,469.4054,856.04,459.4189,856.0283,449.4324,855.5072,439.4459,856.4137,429.4595,856.1089,419.473,856.7267,409.4865,856.6671,399.5,855.5517,389.5135,855.6021,379.527,855.8708,369.5405,856.3555,359.5541,856.403,349.5676,856.3012,339.5811,855.658,329.5946,856.6364,319.6081,856.6338,309.6216,855.9527,299.6351,855.7609,289.6486,855.5986,279.6622,855.7854,269.6757,856.1374,259.6892,855.9316,249.7027,855.5822,239.7162,856.4874,229.7297,855.5411,219.7432,856.5024,209.7568,856.4272,199.7703,856.3719,189.7838,856.6925,179.7973,855.7541,169.8108,855.6994,159.8243,856.5189,149.8378,855.4031,139.8514,855.766,129.8649,856.1155,119.8784,856.0687,109.8919,855.6415,99.9054,855.957,89.9189,856.7446,79.9324,856.6485,69.9459,855.4037,59.9595,856.0785,49.973,855.4861,39.9865,855.9737,30,856,30.293,856,30.4199,845.9603,29.3353,835.9206,30.4005,825.881,30.0084,815.8413,29.4447,805.8016,29.5289,795.7619,30.3266,785.7222,30.2499,775.6825,29.9836,765.6429,29.3279,755.6032,30.6581,745.5635,29.6882,735.5238,29.4719,725.4841,29.9327,715.4444,30.5897,705.4048,30.6154,695.3651,30.0351,685.3254,29.8488,675.2857,30.1698,665.246,30.1862,655.2063,29.4922,645.1667,30.414,635.127,30.5588,625.0873,29.7842,615.0476,29.5708,605.0079,30.6746,594.9683,30.021,584.9286,29.9998,574.8889,30.299,564.8492,29.3543,554.8095,30.53,544.7698,29.9846,534.7302,30.6688,524.6905,29.7841,514.6508,30.409,504.6111,29.556,494.5714,30.245,484.5317,30.3793,474.4921,29.6727,464.4524,30.363,454.4127,29.4286,444.373,29.5295,434.3333,30.6828,424.2937,30.6844,414.254,30.5685,404.2143,29.6396,394.1746,30.3842,384.1349,29.5279,374.0952,30.0582,364.0556,29.9987,354.0159,29.7376,343.9762,30.6159,333.9365,30.4433,323.8968,29.6792,313.8571,30.5266,303.8175,30.0919,293.7778,29.4164,283.7381,29.7667,273.6984,29.4747,263.6587,29.8609,253.619,29.371,243.5794,29.3998,233.5397,30,223.5" style="stroke: #444444; stroke-width: 1.0; stroke-dasharray: 7.0,7.0;"/><text fill="#000000" font-family="Comic Sans MS" font-size="14" font-style="italic" lengthAdjust="spacingAndGlyphs" textLength="84" x="357.5" y="238.4951">«boundary»</text><text fill="#444444" font-family="Comic Sans MS" font-size="16" font-weight="bold" lengthAdjust="spacingAndGlyphs" textLength="173" x="313" y="256.6484">meta-openharmony</text><text fill="#444444" font-family="Comic Sans MS" font-size="12" font-weight="bold" lengthAdjust="spacingAndGlyphs" textLength="62" x="368.5" y="271.5605">[System]</text><!--entity meta_ohos_zephyr--><polygon fill="#438DD5" points="541,298.5,541,298.7102,551.2,298.0857,561.4,298.6933,571.6,298.8997,581.8,297.7866,592,298.4223,602.2,298.0735,612.4,298.1165,622.6,298.4318,632.8,297.8086,643,299.0536,653.2,297.8697,663.4,298.3022,673.6,298.9319,683.8,298.4142,694,298.5682,704.2,298.4681,714.4,298.6785,724.6,298.7391,734.8,299.0857,745,298.5,745.6711,298.5,745.6793,308.1211,745.2546,317.7422,745.4636,327.3633,745.7022,336.9844,744.2788,346.6055,745.6785,356.2266,744.7035,365.8477,745.5338,375.4688,744.505,385.0898,744.9315,394.7109,745.7416,404.332,745,413.9531,745,413.9044,734.8,414.0584,724.6,414.2918,714.4,414.3694,704.2,413.9492,694,414.2403,683.8,413.3807,673.6,414.2375,663.4,414.5013,653.2,414.3977,643,414.5661,632.8,413.47,622.6,413.3009,612.4,413.3317,602.2,413.8942,592,413.7566,581.8,414.6345,571.6,413.7784,561.4,413.6101,551.2,414.1814,541,413.9531,540.3332,413.9531,540.4809,404.332,541.649,394.7109,541.4357,385.0898,541.7345,375.4688,540.6782,365.8477,541.3192,356.2266,541.5904,346.6055,540.5276,336.9844,540.9041,327.3633,541.126,317.7422,541.6518,308.1211,541,298.5" style="stroke: #3C7FC0; stroke-width: 1.5;"/><text fill="#FFFFFF" font-family="Comic Sans MS" font-size="12" font-style="italic" lengthAdjust="spacingAndGlyphs" textLength="74" x="606" y="319.6387">«container»</text><text fill="#FFFFFF" font-family="Comic Sans MS" font-size="16" font-weight="bold" lengthAdjust="spacingAndGlyphs" textLength="162" x="562" y="337.3203">meta-ohos-zephyr</text><text fill="#FFFFFF" font-family="Comic Sans MS" font-size="12" font-style="italic" lengthAdjust="spacingAndGlyphs" textLength="77" x="604.5" y="352.2324">[meta-layer]</text><text fill="#FFFFFF" font-family="Comic Sans MS" font-size="14" lengthAdjust="spacingAndGlyphs" textLength="0" x="645" y="368.0576"/><text fill="#FFFFFF" font-family="Comic Sans MS" font-size="14" lengthAdjust="spacingAndGlyphs" textLength="144" x="569" y="384.3545">OHOS configuration /</text><text fill="#FFFFFF" font-family="Comic Sans MS" font-size="14" lengthAdjust="spacingAndGlyphs" textLength="184" x="551" y="400.6514">adaptation layer for Zephyr</text><!--entity meta_ohos_poky--><polygon fill="#438DD5" points="73,298.5,73,298.7102,82.8947,298.0857,92.7895,298.6933,102.6842,298.8997,112.5789,297.7866,122.4737,298.4223,132.3684,298.0735,142.2632,298.1165,152.1579,298.4318,162.0526,297.8086,171.9474,299.0536,181.8421,297.8697,191.7368,298.3022,201.6316,298.9319,211.5263,298.4142,221.4211,298.5682,231.3158,298.4681,241.2105,298.6785,251.1053,298.7391,261,298.5,261.5857,298.5,261.6711,308.1211,261.6793,317.7422,261.2546,327.3633,261.4636,336.9844,261.7022,346.6055,260.2788,356.2266,261.6785,365.8477,260.7035,375.4688,261.5338,385.0898,260.505,394.7109,260.9315,404.332,261,413.9531,261,414.6947,251.1053,413.9044,241.2105,414.0584,231.3158,414.2918,221.4211,414.3694,211.5263,413.9492,201.6316,414.2403,191.7368,413.3807,181.8421,414.2375,171.9474,414.5013,162.0526,414.3977,152.1579,414.5661,142.2632,413.47,132.3684,413.3009,122.4737,413.3317,112.5789,413.8942,102.6842,413.7566,92.7895,414.6345,82.8947,413.7784,73,413.9531,72.6569,413.9531,73.2283,404.332,72.3332,394.7109,72.4809,385.0898,73.649,375.4688,73.4357,365.8477,73.7345,356.2266,72.6782,346.6055,73.3192,336.9844,73.5904,327.3633,72.5276,317.7422,72.9041,308.1211,73,298.5" style="stroke: #3C7FC0; stroke-width: 1.5;"/><text fill="#FFFFFF" font-family="Comic Sans MS" font-size="12" font-style="italic" lengthAdjust="spacingAndGlyphs" textLength="74" x="130" y="319.6387">«container»</text><text fill="#FFFFFF" font-family="Comic Sans MS" font-size="16" font-weight="bold" lengthAdjust="spacingAndGlyphs" textLength="145" x="94.5" y="337.3203">meta-ohos-poky</text><text fill="#FFFFFF" font-family="Comic Sans MS" font-size="12" font-style="italic" lengthAdjust="spacingAndGlyphs" textLength="77" x="128.5" y="352.2324">[meta-layer]</text><text fill="#FFFFFF" font-family="Comic Sans MS" font-size="14" lengthAdjust="spacingAndGlyphs" textLength="0" x="169" y="368.0576"/><text fill="#FFFFFF" font-family="Comic Sans MS" font-size="14" lengthAdjust="spacingAndGlyphs" textLength="144" x="93" y="384.3545">OHOS configuration /</text><text fill="#FFFFFF" font-family="Comic Sans MS" font-size="14" lengthAdjust="spacingAndGlyphs" textLength="168" x="83" y="400.6514">adaptation layer for Poky</text><!--entity meta_ohos_init--><polygon fill="#438DD5" points="296.5,298.5,296.5,298.7102,306.4524,298.0857,316.4048,298.6933,326.3571,298.8997,336.3095,297.7866,346.2619,298.4223,356.2143,298.0735,366.1667,298.1165,376.119,298.4318,386.0714,297.8086,396.0238,299.0536,405.9762,297.8697,415.9286,298.3022,425.881,298.9319,435.8333,298.4142,445.7857,298.5682,455.7381,298.4681,465.6905,298.6785,475.6429,298.7391,485.5952,299.0857,495.5476,299.1711,505.5,298.5,506.1793,298.5,505.7546,308.1211,505.9636,317.7422,506.2022,327.3633,504.7788,336.9844,506.1785,346.6055,505.2035,356.2266,506.0338,365.8477,505.005,375.4688,505.4315,385.0898,506.2416,394.7109,505.4513,404.332,505.5,413.9531,505.5,414.0584,495.5476,414.2918,485.5952,414.3694,475.6429,413.9492,465.6905,414.2403,455.7381,413.3807,445.7857,414.2375,435.8333,414.5013,425.881,414.3977,415.9286,414.5661,405.9762,413.47,396.0238,413.3009,386.0714,413.3317,376.119,413.8942,366.1667,413.7566,356.2143,414.6345,346.2619,413.7784,336.3095,413.6101,326.3571,414.1814,316.4048,413.2863,306.4524,413.434,296.5,413.9531,297.149,413.9531,296.9357,404.332,297.2345,394.7109,296.1782,385.0898,296.8192,375.4688,297.0904,365.8477,296.0276,356.2266,296.4041,346.6055,296.626,336.9844,297.1518,327.3633,296.4958,317.7422,296.9626,308.1211,296.5,298.5" style="stroke: #3C7FC0; stroke-width: 1.5;"/><text fill="#FFFFFF" font-family="Comic Sans MS" font-size="12" font-style="italic" lengthAdjust="spacingAndGlyphs" textLength="74" x="364" y="319.6387">«container»</text><text fill="#FFFFFF" font-family="Comic Sans MS" font-size="16" font-weight="bold" lengthAdjust="spacingAndGlyphs" textLength="129" x="336.5" y="337.3203">meta-ohos-init</text><text fill="#FFFFFF" font-family="Comic Sans MS" font-size="12" font-style="italic" lengthAdjust="spacingAndGlyphs" textLength="77" x="362.5" y="352.2324">[meta-layer]</text><text fill="#FFFFFF" font-family="Comic Sans MS" font-size="14" lengthAdjust="spacingAndGlyphs" textLength="0" x="403" y="368.0576"/><text fill="#FFFFFF" font-family="Comic Sans MS" font-size="14" lengthAdjust="spacingAndGlyphs" textLength="185" x="306.5" y="384.3545">OHOS initialisation services</text><text fill="#FFFFFF" font-family="Comic Sans MS" font-size="14" lengthAdjust="spacingAndGlyphs" textLength="153" x="324.5" y="400.6514">for application devices</text><!--entity meta_ohos_init_lite--><polygon fill="#438DD5" points="535.5,522,535.5,522.2102,545.4524,521.5857,555.4048,522.1933,565.3571,522.3997,575.3095,521.2866,585.2619,521.9223,595.2143,521.5735,605.1667,521.6165,615.119,521.9318,625.0714,521.3086,635.0238,522.5536,644.9762,521.3697,654.9286,521.8022,664.881,522.4319,674.8333,521.9142,684.7857,522.0682,694.7381,521.9681,704.6905,522.1785,714.6429,522.2391,724.5952,522.5857,734.5476,522.6711,744.5,522,745.1793,522,744.7546,531.6211,744.9636,541.2422,745.2022,550.8633,743.7788,560.4844,745.1785,570.1055,744.2035,579.7266,745.0338,589.3477,744.005,598.9688,744.4315,608.5898,745.2416,618.2109,744.4513,627.832,744.5,637.4531,744.5,637.5584,734.5476,637.7918,724.5952,637.8694,714.6429,637.4492,704.6905,637.7403,694.7381,636.8807,684.7857,637.7375,674.8333,638.0013,664.881,637.8977,654.9286,638.0661,644.9762,636.97,635.0238,636.8009,625.0714,636.8317,615.119,637.3942,605.1667,637.2566,595.2143,638.1345,585.2619,637.2784,575.3095,637.1101,565.3571,637.6814,555.4048,636.7863,545.4524,636.934,535.5,637.4531,536.149,637.4531,535.9357,627.832,536.2345,618.2109,535.1782,608.5898,535.8192,598.9688,536.0904,589.3477,535.0276,579.7266,535.4041,570.1055,535.626,560.4844,536.1518,550.8633,535.4958,541.2422,535.9626,531.6211,535.5,522" style="stroke: #3C7FC0; stroke-width: 1.5;"/><text fill="#FFFFFF" font-family="Comic Sans MS" font-size="12" font-style="italic" lengthAdjust="spacingAndGlyphs" textLength="74" x="603" y="543.1387">«container»</text><text fill="#FFFFFF" font-family="Comic Sans MS" font-size="16" font-weight="bold" lengthAdjust="spacingAndGlyphs" textLength="163" x="558.5" y="560.8203">meta-ohos-init-lite</text><text fill="#FFFFFF" font-family="Comic Sans MS" font-size="12" font-style="italic" lengthAdjust="spacingAndGlyphs" textLength="77" x="601.5" y="575.7324">[meta-layer]</text><text fill="#FFFFFF" font-family="Comic Sans MS" font-size="14" lengthAdjust="spacingAndGlyphs" textLength="0" x="642" y="591.5576"/><text fill="#FFFFFF" font-family="Comic Sans MS" font-size="14" lengthAdjust="spacingAndGlyphs" textLength="185" x="545.5" y="607.8545">OHOS initialisation services</text><text fill="#FFFFFF" font-family="Comic Sans MS" font-size="14" lengthAdjust="spacingAndGlyphs" textLength="146" x="567" y="624.1514">for uC-based devices</text><!--entity meta_ohos_softbus--><polygon fill="#438DD5" points="73,522,73,522.2102,82.8,521.5857,92.6,522.1933,102.4,522.3997,112.2,521.2866,122,521.9223,131.8,521.5735,141.6,521.6165,151.4,521.9318,161.2,521.3086,171,522.5536,180.8,521.3697,190.6,521.8022,200.4,522.4319,210.2,521.9142,220,522.0682,229.8,521.9681,239.6,522.1785,249.4,522.2391,259.2,522.5857,269,522,269.6711,522,269.6793,531.6211,269.2546,541.2422,269.4636,550.8633,269.7022,560.4844,268.2788,570.1055,269.6785,579.7266,268.7035,589.3477,269.5338,598.9688,268.505,608.5898,268.9315,618.2109,269.7416,627.832,269,637.4531,269,637.4044,259.2,637.5584,249.4,637.7918,239.6,637.8694,229.8,637.4492,220,637.7403,210.2,636.8807,200.4,637.7375,190.6,638.0013,180.8,637.8977,171,638.0661,161.2,636.97,151.4,636.8009,141.6,636.8317,131.8,637.3942,122,637.2566,112.2,638.1345,102.4,637.2784,92.6,637.1101,82.8,637.6814,73,637.4531,72.3332,637.4531,72.4809,627.832,73.649,618.2109,73.4357,608.5898,73.7345,598.9688,72.6782,589.3477,73.3192,579.7266,73.5904,570.1055,72.5276,560.4844,72.9041,550.8633,73.126,541.2422,73.6518,531.6211,73,522" style="stroke: #3C7FC0; stroke-width: 1.5;"/><text fill="#FFFFFF" font-family="Comic Sans MS" font-size="12" font-style="italic" lengthAdjust="spacingAndGlyphs" textLength="74" x="134" y="543.1387">«container»</text><text fill="#FFFFFF" font-family="Comic Sans MS" font-size="16" font-weight="bold" lengthAdjust="spacingAndGlyphs" textLength="170" x="86" y="560.8203">meta-ohos-softbus</text><text fill="#FFFFFF" font-family="Comic Sans MS" font-size="12" font-style="italic" lengthAdjust="spacingAndGlyphs" textLength="77" x="132.5" y="575.7324">[meta-layer]</text><text fill="#FFFFFF" font-family="Comic Sans MS" font-size="14" lengthAdjust="spacingAndGlyphs" textLength="0" x="173" y="591.5576"/><text fill="#FFFFFF" font-family="Comic Sans MS" font-size="14" lengthAdjust="spacingAndGlyphs" textLength="172" x="83" y="607.8545">OHOS softbus service for</text><text fill="#FFFFFF" font-family="Comic Sans MS" font-size="14" lengthAdjust="spacingAndGlyphs" textLength="131" x="105.5" y="624.1514">application devices</text><!--entity meta_ohos_softbus_lite--><polygon fill="#438DD5" points="521,698,521,698.2102,531.1818,697.5857,541.3636,698.1933,551.5455,698.3997,561.7273,697.2866,571.9091,697.9223,582.0909,697.5735,592.2727,697.6165,602.4545,697.9318,612.6364,697.3086,622.8182,698.5536,633,697.3697,643.1818,697.8022,653.3636,698.4319,663.5455,697.9142,673.7273,698.0682,683.9091,697.9681,694.0909,698.1785,704.2727,698.2391,714.4545,698.5857,724.6364,698.6711,734.8182,698.6793,745,698,745.2546,698,745.4636,708.3137,745.7022,718.6274,744.2788,728.9411,745.6785,739.2548,744.7035,749.5685,745.5338,759.8822,744.505,770.1959,744.9315,780.5096,745.7416,790.8233,744.9513,801.137,745.1053,811.4507,745.3386,821.7644,745,832.0781,745,832.4944,734.8182,832.0742,724.6364,832.3653,714.4545,831.5057,704.2727,832.3625,694.0909,832.6263,683.9091,832.5227,673.7273,832.6911,663.5455,831.595,653.3636,831.4259,643.1818,831.4567,633,832.0192,622.8182,831.8816,612.6364,832.7595,602.4545,831.9034,592.2727,831.7351,582.0909,832.3064,571.9091,831.4113,561.7273,831.559,551.5455,832.7271,541.3636,832.5138,531.1818,832.8126,521,832.0781,520.6782,832.0781,521.3192,821.7644,521.5904,811.4507,520.5276,801.137,520.9041,790.8233,521.126,780.5096,521.6518,770.1959,520.9958,759.8822,521.4626,749.5685,520.4462,739.2548,520.3227,728.9411,521.5036,718.6274,520.2831,708.3137,521,698" style="stroke: #3C7FC0; stroke-width: 1.5;"/><text fill="#FFFFFF" font-family="Comic Sans MS" font-size="12" font-style="italic" lengthAdjust="spacingAndGlyphs" textLength="74" x="596" y="719.1387">«container»</text><text fill="#FFFFFF" font-family="Comic Sans MS" font-size="16" font-weight="bold" lengthAdjust="spacingAndGlyphs" textLength="204" x="531" y="755.4453">meta-ohos-softbus-lite</text><text fill="#FFFFFF" font-family="Comic Sans MS" font-size="12" font-style="italic" lengthAdjust="spacingAndGlyphs" textLength="77" x="594.5" y="770.3574">[meta-layer]</text><text fill="#FFFFFF" font-family="Comic Sans MS" font-size="14" lengthAdjust="spacingAndGlyphs" textLength="0" x="635" y="786.1826"/><text fill="#FFFFFF" font-family="Comic Sans MS" font-size="14" lengthAdjust="spacingAndGlyphs" textLength="172" x="545" y="802.4795">OHOS softbus service for</text><text fill="#FFFFFF" font-family="Comic Sans MS" font-size="14" lengthAdjust="spacingAndGlyphs" textLength="124" x="571" y="818.7764">uC-based devices</text><!--entity dev--><polygon fill="#08427B" points="634.5,8.5,634.5,8.7102,644.65,8.0857,654.8,8.6933,664.95,8.8997,675.1,7.7866,685.25,8.4223,695.4,8.0735,705.55,8.1165,715.7,8.4318,725.85,7.8086,736,9.0536,746.15,7.8697,756.3,8.3022,766.45,8.9319,776.6,8.4142,786.75,8.5682,796.9,8.4681,807.05,8.6785,817.2,8.7391,827.35,9.0857,837.5,8.5,838.1711,8.5,838.1793,18.6484,837.7546,28.7969,837.9636,38.9453,838.2022,49.0938,836.7788,59.2422,838.1785,69.3906,837.2035,79.5391,838.0338,89.6875,837.005,99.8359,837.5,109.9844,837.5,109.9159,827.35,110.726,817.2,109.9356,807.05,110.0897,796.9,110.323,786.75,110.4006,776.6,109.9805,766.45,110.2716,756.3,109.412,746.15,110.2688,736,110.5326,725.85,110.4289,715.7,110.5974,705.55,109.5013,695.4,109.3322,685.25,109.363,675.1,109.9255,664.95,109.7878,654.8,110.6658,644.65,109.8097,634.5,109.9844,634.1569,109.9844,634.7283,99.8359,633.8332,89.6875,633.9809,79.5391,635.149,69.3906,634.9357,59.2422,635.2345,49.0938,634.1782,38.9453,634.8192,28.7969,635.0904,18.6484,634.5,8.5" style="stroke: #073B6F; stroke-width: 1.5;"/><text fill="#FFFFFF" font-family="Comic Sans MS" font-size="12" font-style="italic" lengthAdjust="spacingAndGlyphs" textLength="57" x="707.5" y="29.6387">«person»</text><text fill="#FFFFFF" font-family="Comic Sans MS" font-size="16" font-weight="bold" lengthAdjust="spacingAndGlyphs" textLength="90" x="691" y="47.3203">Developer</text><text fill="#FFFFFF" font-family="Comic Sans MS" font-size="14" lengthAdjust="spacingAndGlyphs" textLength="0" x="738" y="64.0889"/><text fill="#FFFFFF" font-family="Comic Sans MS" font-size="14" lengthAdjust="spacingAndGlyphs" textLength="179" x="644.5" y="80.3857">Anyone willing to build the</text><text fill="#FFFFFF" font-family="Comic Sans MS" font-size="14" lengthAdjust="spacingAndGlyphs" textLength="134" x="669" y="96.6826">OHOS based image</text><!--entity meta_zephyr--><polygon fill="#438DD5" points="805.5,530,805.5,530.2102,815.2059,529.5857,824.9118,530.1933,834.6176,530.3997,844.3235,529.2866,854.0294,529.9223,863.7353,529.5735,873.4412,529.6165,883.1471,529.9318,892.8529,529.3086,902.5588,530.5536,912.2647,529.3697,921.9706,529.8022,931.6765,530.4319,941.3824,529.9142,951.0882,530.0682,960.7941,529.9681,970.5,530,970.6785,530,970.7391,539.9156,971.0857,549.8313,971.1711,559.7469,971.1793,569.6625,970.7546,579.5781,970.9636,589.4938,971.2022,599.4094,969.7788,609.325,971.1785,619.2406,970.5,629.1563,970.5,628.8597,960.7941,629.6901,951.0882,628.6612,941.3824,629.0878,931.6765,629.8979,921.9706,629.1075,912.2647,629.2616,902.5588,629.4949,892.8529,629.5725,883.1471,629.1523,873.4412,629.4435,863.7353,628.5838,854.0294,629.4406,844.3235,629.7044,834.6176,629.6008,824.9118,629.7693,815.2059,628.6732,805.5,629.1563,804.8478,629.1563,804.8786,619.2406,805.4411,609.325,805.3035,599.4094,806.1814,589.4938,805.3253,579.5781,805.1569,569.6625,805.7283,559.7469,804.8332,549.8313,804.9809,539.9156,805.5,530" style="stroke: #3C7FC0; stroke-width: 1.5;"/><text fill="#FFFFFF" font-family="Comic Sans MS" font-size="12" font-style="italic" lengthAdjust="spacingAndGlyphs" textLength="74" x="851" y="551.1387">«container»</text><text fill="#FFFFFF" font-family="Comic Sans MS" font-size="16" font-weight="bold" lengthAdjust="spacingAndGlyphs" textLength="112" x="832" y="568.8203">meta-zephyr</text><text fill="#FFFFFF" font-family="Comic Sans MS" font-size="12" font-style="italic" lengthAdjust="spacingAndGlyphs" textLength="77" x="849.5" y="583.7324">[meta-layer]</text><text fill="#FFFFFF" font-family="Comic Sans MS" font-size="14" lengthAdjust="spacingAndGlyphs" textLength="0" x="890" y="599.5576"/><text fill="#FFFFFF" font-family="Comic Sans MS" font-size="14" lengthAdjust="spacingAndGlyphs" textLength="145" x="815.5" y="615.8545">ZephyrOS meta-layer</text><!--entity yocto--><polygon fill="#999999" points="922.5,297,922.5,297.2102,932.3333,296.5857,942.1667,297.1933,952,297.3997,961.8333,296.2866,971.6667,296.9223,981.5,296.5735,991.3333,296.6165,1001.1667,296.9318,1011,296.3086,1020.8333,297.5536,1030.6667,296.3697,1040.5,296.8022,1050.3333,297.4319,1060.1667,296.9142,1070,297.0682,1079.8333,296.9681,1089.6667,297.1785,1099.5,297,1099.7391,297,1100.0857,306.8151,1100.1711,316.6302,1100.1793,326.4453,1099.7546,336.2604,1099.9636,346.0755,1100.2022,355.8906,1098.7788,365.7057,1100.1785,375.5208,1099.2035,385.3359,1100.0338,395.151,1099.005,404.9661,1099.5,414.7813,1099.5,414.7128,1089.6667,415.5229,1079.8333,414.7325,1070,414.8866,1060.1667,415.1199,1050.3333,415.1975,1040.5,414.7773,1030.6667,415.0685,1020.8333,414.2088,1011,415.0656,1001.1667,415.3294,991.3333,415.2258,981.5,415.3943,971.6667,414.2982,961.8333,414.1291,952,414.1598,942.1667,414.7224,932.3333,414.5847,922.5,414.7813,923.1814,414.7813,922.3253,404.9661,922.1569,395.151,922.7283,385.3359,921.8332,375.5208,921.9809,365.7057,923.149,355.8906,922.9357,346.0755,923.2345,336.2604,922.1782,326.4453,922.8192,316.6302,923.0904,306.8151,922.5,297" style="stroke: #8A8A8A; stroke-width: 1.5;"/><text fill="#FFFFFF" font-family="Comic Sans MS" font-size="12" font-style="italic" lengthAdjust="spacingAndGlyphs" textLength="115" x="953.5" y="318.1387">«external_system»</text><text fill="#FFFFFF" font-family="Comic Sans MS" font-size="16" font-weight="bold" lengthAdjust="spacingAndGlyphs" textLength="100" x="961" y="335.8203">yocto-poky</text><text fill="#FFFFFF" font-family="Comic Sans MS" font-size="14" lengthAdjust="spacingAndGlyphs" textLength="0" x="1013" y="352.5889"/><text fill="#FFFFFF" font-family="Comic Sans MS" font-size="14" lengthAdjust="spacingAndGlyphs" textLength="122" x="948" y="368.8857">distro scaffolding:</text><text fill="#FFFFFF" font-family="Comic Sans MS" font-size="14" lengthAdjust="spacingAndGlyphs" textLength="153" x="932.5" y="385.1826">predefined meta-data,</text><text fill="#FFFFFF" font-family="Comic Sans MS" font-size="14" lengthAdjust="spacingAndGlyphs" textLength="142" x="940" y="401.4795">bitbake build system</text><!--link dev to meta_ohos_zephyr--><path d="M666.39,109.86 L666.4626,109.9188 L663.9633,112.5664 L661.8898,115.5585 L659.6776,118.4385 L657.0095,120.9496 L654.9725,123.9713 L654.9426,123.954 L653.0139,126.9822 L651.2359,130.0975 L649.5628,133.2733 L647.5284,136.2405 L646,139.5 L646.2293,139.5892 L644.2938,143.1156 L643.0279,146.9024 L641.8436,150.721 L640.1841,154.3547 L638.7745,158.0857 L638.8036,158.0943 L638.1898,160.0081 L637.7083,161.9612 L637.163,163.8954 L636.7395,165.8657 L635.9188,167.7182 L636.2085,167.7888 L635.7343,169.7502 L635.0732,171.6661 L634.6857,173.6487 L634.311,175.6344 L633.53,177.5211 L633.2155,177.4593 L633.4359,179.5655 L632.6207,181.4682 L632.5928,183.5256 L631.7541,185.4237 L631.58,187.4524 L631.5499,187.4478 L631.5979,189.506 L630.9428,191.4561 L630.7025,193.4701 L630.4971,195.4894 L630.0405,197.47 L630.2242,197.4912 L629.8073,199.4822 L629.7044,201.5094 L629.0934,203.4781 L629.2402,205.534 L628.8832,207.532 L629.1261,207.5514 L628.9195,209.5606 L628.8335,211.5794 L628.1873,213.5535 L627.9517,215.5603 L628.08,217.5963 L627.804,217.5872 L627.9224,221.5889 L627.7298,225.5803 L627.9883,229.5866 L627.4765,233.5676 L627.4227,237.5636 L627.2702,237.5603 L627.6081,241.4602 L627.2943,245.3461 L627.4439,249.2419 L628.0469,253.1476 L627.8425,257.0358 L628.0357,257.049 L628.4224,260.7862 L628.2082,264.4824 L628.7467,268.23 L629.1212,271.9663 L629.1136,275.6767 L628.9049,275.654 L629.4505,279.1667 L629.9278,282.672 L630.5394,286.1919 L630.6289,289.6551 L631.01,293.15 " fill="none" style="stroke: #666666; stroke-width: 1.0;"/><polygon fill="#666666" points="631.68,298.25,631.7472,298.2698,632.104,296.3215,632.8548,294.4892,633.4773,292.6191,633.6779,290.6247,634.4626,288.8024,634.442,288.7866,633.6618,289.6141,632.9852,290.5211,632.3807,291.4832,631.5279,292.255,631.0229,293.2934,631.1351,293.4399,629.997,292.4386,629.1865,291.8652,628.4159,291.3439,627.4128,290.5189,626.532,289.8537,626.5513,289.8656,627.5525,291.5274,628.6419,293.2433,629.6887,294.9332,630.8168,296.6728,631.68,298.25" style="stroke: #666666; stroke-width: 1.0;"/><text fill="#666666" font-family="Comic Sans MS" font-size="13" font-weight="bold" lengthAdjust="spacingAndGlyphs" textLength="118" x="656.5" y="152.5669">1. selects OHOS</text><text fill="#666666" font-family="Comic Sans MS" font-size="13" font-weight="bold" lengthAdjust="spacingAndGlyphs" textLength="142" x="647" y="167.6997">Zephyr distribution</text><text fill="#666666" font-family="Comic Sans MS" font-size="12" font-style="italic" lengthAdjust="spacingAndGlyphs" textLength="115" x="658.5" y="181.9043">[environment shell</text><text fill="#666666" font-family="Comic Sans MS" font-size="12" font-style="italic" lengthAdjust="spacingAndGlyphs" textLength="39" x="698.5" y="195.873">script]</text><!--link meta_ohos_zephyr to yocto--><path d="M745.02,356 L745.02,356.2802 L755.1476,355.4476 L765.2753,356.2577 L775.4029,356.5329 L785.5306,355.0488 L795.6582,355.8964 L805.7859,355.4313 L815.9135,355.4887 L826.0412,355.9091 L836.1688,355.0782 L846.2965,356.7382 L856.4241,355.1596 L866.5518,355.7363 L876.6794,356.5759 L886.8071,355.8856 L896.9347,356.091 L907.0624,355.9574 L917.19,356 " fill="none" style="stroke: #666666; stroke-width: 1.0;"/><polygon fill="#666666" points="922.24,356,922.2685,356.064,920.3839,355.0738,918.6662,354.4589,916.8941,353.7217,914.9434,352.5827,913.24,352,913.2217,351.9817,913.9395,352.6995,914.7496,353.5096,915.6239,354.3839,916.277,355.037,917.24,356,917.3705,356.1305,916.2914,356.6514,915.5934,357.5534,914.9418,358.5018,914.0198,359.1798,913.24,360,913.2492,360.0208,915.0357,359.1903,916.8642,358.4544,918.6724,357.6728,920.5193,356.9784,922.24,356" style="stroke: #666666; stroke-width: 1.0;"/><text fill="#666666" font-family="Comic Sans MS" font-size="13" font-weight="bold" lengthAdjust="spacingAndGlyphs" textLength="136" x="763.25" y="291.0669">2. sets up bitbake</text><text fill="#666666" font-family="Comic Sans MS" font-size="13" font-weight="bold" lengthAdjust="spacingAndGlyphs" textLength="118" x="772.25" y="306.1997">environment for</text><text fill="#666666" font-family="Comic Sans MS" font-size="13" font-weight="bold" lengthAdjust="spacingAndGlyphs" textLength="99" x="784.25" y="321.3325">OHOS Zephyr</text><text fill="#666666" font-family="Comic Sans MS" font-size="12" font-style="italic" lengthAdjust="spacingAndGlyphs" textLength="117" x="773.25" y="335.5371">[local.conf.sample,</text><text fill="#666666" font-family="Comic Sans MS" font-size="12" font-style="italic" lengthAdjust="spacingAndGlyphs" textLength="137" x="765.25" y="349.5059">bblayers.conf.sample]</text><!--link dev to yocto--><path d="M773.02,109.69 L773.096,109.7443 L775.0019,112.5677 L777.3534,115.7094 L779.5598,118.7475 L781.289,121.4447 L783.6788,124.6138 L783.6504,124.5941 L785.5872,127.483 L787.6672,130.4711 L789.8466,133.5282 L791.6832,136.3477 L794,139.5 L794.2065,139.6338 L794.9424,141.1657 L796.2813,143.0881 L797.6938,145.0582 L798.6782,146.7511 L799.8878,148.5898 L799.9139,148.6051 L800.8052,150.1685 L801.8155,151.8017 L802.7684,153.4013 L803.8309,155.0651 L804.5359,156.5194 L804.7987,156.6605 L806.2832,159.4203 L807.5983,162.0892 L809.1614,164.8912 L810.7361,167.6995 L811.9425,170.31 L811.6668,170.1465 L813.789,173.1409 L815.0033,175.597 L816.9078,178.4624 L818.1015,180.9063 L819.8778,183.6956 L819.8537,183.6771 L822.5638,187.0571 L824.7095,190.0042 L827.1883,193.2067 L829.695,196.4307 L832,199.5 L832.1383,199.6229 L834.2498,202.0318 L836.5976,204.6508 L838.5631,206.9299 L841.0989,209.7159 L843.2555,212.1649 L843.4327,212.3321 L845.7634,214.806 L848.1821,217.3629 L850.192,219.534 L852.5015,221.9879 L855.0766,224.6923 L854.8807,224.4977 L857.5082,227.1392 L859.915,229.5614 L862.6419,232.3018 L864.8222,234.4989 L867.3275,237.0189 L867.2218,236.909 L869.9068,239.5045 L872.1401,241.6302 L874.6946,244.09 L877.5634,246.8767 L879.8725,249.0812 L880.0039,249.2235 L882.6347,251.668 L884.8568,253.6701 L887.5908,256.2263 L890.2133,258.6617 L892.576,260.8159 L892.4363,260.6592 L895.0929,263.0528 L897.7037,265.3952 L900.4044,267.8383 L902.7557,269.8894 L905.3022,272.1595 L905.4365,272.3151 L907.664,274.1511 L910.1508,276.2874 L913.0164,278.8625 L915.1846,280.6297 L917.9154,283.0487 L918.0608,283.222 L920.4474,285.1933 L922.7847,287.106 L925.2331,289.151 L927.9381,291.502 L930.28,293.42 " fill="none" style="stroke: #666666; stroke-width: 1.0;"/><polygon fill="#666666" points="934.22,296.67,934.2827,296.7012,933.218,294.8453,932.5209,293.1726,931.7041,291.4402,930.4936,289.5117,929.828,287.8546,929.8022,287.8522,929.7939,288.9674,929.9155,290.095,930.1275,291.2313,930.0281,292.3378,930.3649,293.486,930.3824,293.6697,929.2187,293.3842,928.1061,293.6351,926.9998,293.9514,925.8571,293.887,924.7336,294.0228,924.7397,294.0447,926.628,294.542,928.5441,295.139,930.4469,295.6879,932.3752,296.3286,934.22,296.67" style="stroke: #666666; stroke-width: 1.0;"/><text fill="#666666" font-family="Comic Sans MS" font-size="13" font-weight="bold" lengthAdjust="spacingAndGlyphs" textLength="149" x="833" y="167.0669">3. initiates the build</text><text fill="#666666" font-family="Comic Sans MS" font-size="12" font-style="italic" lengthAdjust="spacingAndGlyphs" textLength="57" x="879" y="181.2715">[bitbake]</text><!--link dev to yocto--><!--link yocto to meta_ohos_init_lite--><path d="M922.14,374.17 L922.16,374.2612 L916.0225,375.3232 L910.0024,376.92 L903.944,378.3426 L897.76,379.1924 L891.7499,380.8352 L891.742,380.8015 L885.3395,382.1504 L878.977,383.6687 L872.6422,385.3048 L866.2118,386.5349 L859.9153,388.3338 L859.9751,388.5724 L856.6296,388.8679 L853.4586,389.8602 L850.309,390.9376 L847.0354,391.5202 L843.827,392.3631 L843.8347,392.3924 L840.6225,393.1891 L837.4453,394.1193 L834.2513,394.9851 L831.0894,395.9738 L827.8225,396.5617 L827.9018,396.8492 L824.7483,397.7237 L821.5435,398.4128 L818.4137,399.3733 L815.2874,400.3465 L812.0499,400.9167 L811.9599,400.609 L809.056,402.1058 L805.8559,402.5895 L802.881,403.8434 L799.6743,404.3042 L796.6575,405.415 L796.6484,405.3859 L793.7827,406.6554 L790.7055,407.2458 L787.7531,408.2369 L784.8112,409.2616 L781.7937,410.0436 L781.8523,410.219 L778.9557,410.9912 L776.1593,412.063 L773.2007,412.6499 L770.4841,413.9602 L767.6066,414.7895 L767.6897,415.0186 L765.0016,415.9453 L762.3548,416.9857 L759.5161,417.4978 L756.8181,418.3972 L754.2446,419.6397 L754.1423,419.3832 L751.7572,420.6037 L749.2568,421.5352 L746.9236,422.8859 L744.3049,423.5208 L741.8559,424.5812 L741.7939,424.442 L739.6438,425.6779 L737.2285,426.3184 L735.0018,427.3824 L732.9597,428.8605 L730.5889,429.601 L730.6767,429.7736 L728.7374,430.909 L726.5252,431.5076 L724.6549,432.7785 L722.7101,433.903 L720.5917,434.6861 L720.4758,434.511 L717.4498,436.7133 L714.3859,438.8584 L711.3965,441.116 L708.1173,442.9357 L705,445 L705.1397,445.1509 L703.2385,446.2955 L701.607,447.7314 L700.3693,449.5926 L698.4065,450.6707 L697.0287,452.3806 L697.1964,452.5324 L695.6276,454.0653 L694.0022,455.5469 L692.5048,457.1444 L691.3034,459.0098 L689.6831,460.4961 L689.5779,460.4147 L688.543,462.3997 L686.7925,463.8311 L685.8557,465.892 L684.4607,467.5985 L682.9423,469.2095 L683.0327,469.2701 L681.7282,471.056 L680.7475,473.0591 L679.4743,474.866 L678.0789,476.5908 L676.785,478.3837 L676.8877,478.4442 L675.6162,480.254 L674.8215,482.3446 L673.4874,484.1176 L672.3753,486.0212 L671.1902,487.8819 L670.9505,487.7569 L670.0199,489.7356 L669.378,491.8651 L668.3276,493.7813 L667.1306,495.6212 L666.1369,497.567 L666.0071,497.5066 L665.1421,499.473 L664.0472,501.3323 L663.5841,503.4859 L662.8084,505.4938 L661.6038,507.3021 L661.8197,507.3923 L661.082,509.3508 L659.9342,511.1378 L659.2193,513.1058 L658.2178,514.954 L657.57,516.95 " fill="none" style="stroke: #666666; stroke-width: 1.0;"/><polygon fill="#666666" points="655.74,521.68,655.7893,521.7298,657.0416,520.1951,658.583,518.9521,660.0303,517.6141,661.1679,515.9638,662.7341,514.7459,662.7237,514.7222,661.6411,515.0708,660.6111,515.5389,659.6175,516.0902,658.4981,516.355,657.555,517.0211,657.724,517.0953,656.9076,515.9007,656.5846,514.9229,656.3217,513.9715,655.7087,512.8662,655.2798,511.8419,655.3025,511.843,655.3612,513.809,655.5233,515.7799,655.6356,517.7485,655.843,519.7215,655.74,521.68" style="stroke: #666666; stroke-width: 1.0;"/><text fill="#666666" font-family="Comic Sans MS" font-size="13" font-weight="bold" lengthAdjust="spacingAndGlyphs" textLength="112" x="720" y="458.0669">4. incorporates</text><text fill="#666666" font-family="Comic Sans MS" font-size="13" font-weight="bold" lengthAdjust="spacingAndGlyphs" textLength="140" x="706" y="473.1997">Zephyr-compatible</text><text fill="#666666" font-family="Comic Sans MS" font-size="13" font-weight="bold" lengthAdjust="spacingAndGlyphs" textLength="91" x="733" y="488.3325">OHOS layers</text><!--link yocto to meta_ohos_softbus_lite--><path d="M1024.66,415.23 L1024.7522,415.2451 L1024.8762,417.6353 L1025.5407,420.1139 L1026.0293,422.5637 L1025.939,424.919 L1026.6499,427.4051 L1026.6157,427.4004 L1026.8204,429.9618 L1027.1977,432.547 L1027.6948,435.149 L1027.7787,437.6936 L1028.4414,440.3185 L1028.6859,440.3458 L1028.4657,442.9956 L1028.9594,445.7253 L1029.5402,448.4647 L1029.6142,451.1474 L1029.9547,453.8599 L1029.9849,453.8624 L1030.1716,456.6707 L1030.4959,459.4903 L1030.7538,462.3044 L1031.1384,465.1289 L1031.11,467.9195 L1031.4079,467.9343 L1031.555,470.828 L1031.51,473.7122 L1031.7463,476.6104 L1031.9957,479.5092 L1031.8275,482.3872 L1031.507,482.3829 L1032.169,485.3445 L1031.7757,488.2918 L1032.1846,491.2499 L1031.7674,494.1969 L1032.0273,497.153 L1031.9969,497.1522 L1032.2773,500.1526 L1031.8467,503.134 L1031.8356,506.1266 L1031.8597,509.1201 L1031.6298,512.1069 L1031.8143,512.1201 L1031.4131,515.1131 L1031.3272,518.1287 L1030.7312,521.1079 L1030.896,524.1414 L1030.555,527.1388 L1030.7968,527.1683 L1030.3848,530.1627 L1030.0927,533.1717 L1029.2428,536.1127 L1028.8018,539.1035 L1028.7232,542.1386 L1028.4514,542.0898 L1028.1637,545.1056 L1027.5698,548.0663 L1027.4201,551.1069 L1026.5119,554.0112 L1026.0545,556.9965 L1025.9065,556.9602 L1025.436,559.9419 L1024.3326,562.7682 L1023.6793,565.705 L1023.4664,568.7499 L1022.4692,571.6023 L1022.6536,571.6616 L1021.8636,574.551 L1020.5004,577.256 L1019.8552,580.192 L1019.0537,583.0777 L1017.8875,585.8461 L1017.6933,585.7663 L1016.7165,588.5842 L1015.6761,591.376 L1014.7606,594.2192 L1013.3594,596.8627 L1012.2295,599.6178 L1012.4122,599.7121 L1010.648,602.1427 L1009.2365,604.7554 L1008.3399,607.6342 L1006.4952,610.0232 L1005.4155,612.8073 L1005.6056,612.9298 L1003.8827,615.3565 L1002.0954,617.7418 L1000.4533,620.2206 L999.147,622.9157 L997.3656,625.3047 L997.2617,625.2216 L995.6978,627.8082 L993.4276,629.8293 L991.9604,632.4934 L990.0411,634.7955 L988,637 L988.0786,637.0754 L985.6601,639.4707 L983.523,642.1359 L981.1317,644.5573 L978.6341,646.8768 L976.2248,649.2809 L976.305,649.3691 L973.6669,651.5306 L971.4012,654.1015 L968.7143,656.2095 L966.2006,658.5078 L963.63,660.7437 L963.461,660.5326 L960.8521,662.7377 L958.4467,665.1969 L955.7532,667.2964 L952.9565,669.267 L950.3031,671.4165 L950.2202,671.2997 L947.4524,673.3193 L944.538,675.1321 L942.0267,677.5134 L939.3159,679.6134 L936.3314,681.3275 L936.4563,681.5253 L933.5906,683.4241 L930.4874,684.9471 L927.6347,686.8667 L924.6162,688.5238 L921.8025,690.5049 L921.8645,690.6148 L918.8566,692.2948 L915.9237,694.1075 L912.753,695.4993 L909.774,697.2305 L906.8037,698.977 L906.8927,699.1528 L903.8414,700.7608 L900.5482,701.8917 L897.536,703.577 L894.5287,705.272 L891.4224,706.7717 L891.3098,706.5247 L888.3523,708.3438 L885.1995,709.7344 L881.9982,711.0185 L878.9077,712.5459 L875.7463,713.9175 L875.8693,714.2171 L872.5167,715.0939 L869.446,716.657 L866.2643,717.9499 L863.0588,719.185 L859.8625,720.4424 L859.8843,720.5011 L856.6793,721.6761 L853.3646,722.5552 L850.1983,723.8347 L846.9882,724.9958 L843.8587,726.3746 L843.8677,726.4015 L840.6638,727.4853 L837.4669,728.5899 L834.1957,729.4726 L831.02,730.6403 L827.8222,731.7423 L827.8067,731.6912 L824.7,732.954 L821.4844,733.8564 L818.1707,734.4346 L815.0274,735.5764 L811.8405,736.5738 L811.7729,736.3263 L808.7063,737.5621 L805.5759,738.564 L802.4005,739.4012 L799.1179,739.8456 L796.0009,740.897 L796.0502,741.0973 L792.8,741.3451 L789.7783,742.5208 L786.6032,743.0739 L783.5233,744.0135 L780.3911,744.7404 L780.4142,744.8447 L777.3779,745.6236 L774.2047,745.7847 L771.2612,746.9817 L768.174,747.531 L765.0983,748.132 L765.1292,748.2869 L762.1856,749.0515 L759.1434,749.3216 L756.1805,749.9892 L753.2062,750.5994 L750.21,751.1 " fill="none" style="stroke: #666666; stroke-width: 1.0;"/><polygon fill="#666666" points="745.09,752.05,745.1063,752.1181,746.9739,752.3729,748.9369,753.0272,750.8688,753.5514,752.6986,753.6478,754.6698,754.3363,754.6551,754.315,753.6565,753.579,752.7318,752.9506,751.8585,752.3971,750.8081,751.5856,750.0057,751.1355,750.1578,751.2399,750.4726,750.0838,751.2317,749.2325,752.0449,748.4184,752.5428,747.388,753.2065,746.4713,753.2194,746.4901,751.5772,747.5783,749.9936,748.7518,748.3818,749.8842,746.8239,751.0952,745.09,752.05" style="stroke: #666666; stroke-width: 1.0;"/><text fill="#666666" font-family="Comic Sans MS" font-size="13" font-weight="bold" lengthAdjust="spacingAndGlyphs" textLength="112" x="1045" y="569.0669">4. incorporates</text><text fill="#666666" font-family="Comic Sans MS" font-size="13" font-weight="bold" lengthAdjust="spacingAndGlyphs" textLength="140" x="1031" y="584.1997">Zephyr-compatible</text><text fill="#666666" font-family="Comic Sans MS" font-size="13" font-weight="bold" lengthAdjust="spacingAndGlyphs" textLength="91" x="1058" y="599.3325">OHOS layers</text><!--link yocto to meta_zephyr--><path d="M922.24,393.63 L922.2929,393.707 L919.0828,395.578 L916.1831,397.9003 L913.1822,400.0756 L909.8491,401.7678 L906.9759,404.1287 L906.9536,404.1024 L904.0147,406.3884 L901.1884,408.8072 L898.4403,411.3184 L895.4226,413.5113 L892.7825,416.15 L892.9635,416.3167 L890.0715,418.681 L887.708,421.532 L885.4089,424.4423 L882.7347,427.0072 L880.2578,429.7538 L880.283,429.7707 L878.1945,432.7951 L876.2205,435.8965 L874.1913,438.9608 L872.2675,442.0961 L870,445 L870.2709,445.1247 L869.419,446.9837 L868.3924,448.7622 L867.6216,450.6584 L866.8628,452.5602 L865.7241,454.2871 L865.417,454.1953 L865.4313,456.32 L864.4344,458.1425 L864.2062,460.1947 L863.1864,462.0103 L862.8155,464.0198 L862.7854,464.0148 L862.8042,466.0849 L862.1214,468.0375 L861.8526,470.0595 L861.6185,472.0872 L861.1338,474.073 L861.3185,474.0837 L861.013,476.1225 L861.0232,478.1797 L860.5228,480.2072 L860.7839,482.2789 L860.5388,484.3212 L860.7823,484.3295 L860.8065,486.3916 L860.9516,488.4578 L860.535,490.5048 L860.5302,492.5659 L860.8901,494.6394 L860.6157,494.6084 L861.0956,496.689 L861.2663,498.7346 L861.8856,500.8309 L861.739,502.8408 L862.0477,504.902 L861.8976,504.8749 L862.5122,506.9365 L862.4854,508.8821 L862.9146,510.9102 L863.7902,513.0189 L863.871,514.984 L864.0593,515.0292 L864.6582,517.0155 L864.6716,518.861 L865.4184,520.8827 L866.0054,522.8661 L866.22,524.76 " fill="none" style="stroke: #666666; stroke-width: 1.0;"/><polygon fill="#666666" points="867.64,529.8,867.7093,529.8102,867.7903,527.8311,868.2777,525.9119,868.6327,523.9731,868.5526,521.9703,869.0748,520.0562,869.0523,520.0435,868.3954,520.9719,867.8522,521.9645,867.3881,523.0016,866.6515,523.8851,866.2966,524.9838,866.3873,525.1446,865.2079,524.2452,864.2932,523.8151,863.4108,523.4423,862.3405,522.7364,861.369,522.2056,861.3865,522.2201,862.615,523.7177,863.9233,525.2813,865.1931,526.813,866.5363,528.4054,867.64,529.8" style="stroke: #666666; stroke-width: 1.0;"/><text fill="#666666" font-family="Comic Sans MS" font-size="13" font-weight="bold" lengthAdjust="spacingAndGlyphs" textLength="112" x="871" y="473.0669">4. incorporates</text><!--link meta_zephyr to yocto--><!--link dev to meta_openharmonyn--><!--link meta_ohos_zephyr to meta_ohos_init_lite--><!--link meta_ohos_init_lite to meta_ohos_softbus_lite--><!--link meta_ohos_poky to meta_ohos_init--><!--link meta_ohos_poky to meta_ohos_softbus--><text fill="#FF0000" font-family="Comic Sans MS" font-size="10" lengthAdjust="spacingAndGlyphs" textLength="42" x="462" y="899.2822">Warning:</text><text fill="#888888" font-family="Comic Sans MS" font-size="10" lengthAdjust="spacingAndGlyphs" textLength="226" x="507" y="899.2822">Created for discussion, needs to be validated()</text><!--
@startuml 0001-meta-openharmony-zephyr-build-sequence-diagram





skinparam defaultTextAlignment center

skinparam wrapWidth 200
skinparam maxMessageSize 150

skinparam rectangle {
    StereotypeFontSize 12
    shadowing false
}

skinparam database {
    StereotypeFontSize 12
    shadowing false
}

skinparam Arrow {
    Color #666666
    FontColor #666666
    FontSize 12
}

skinparam rectangle<<boundary>> {
    Shadowing false
    StereotypeFontSize 0
    FontColor #444444
    BorderColor #444444
    BorderStyle dashed
}






















skinparam rectangle<<person>> {
    StereotypeFontColor #FFFFFF
    FontColor #FFFFFF
    BackgroundColor #08427B
    BorderColor #073B6F
}

skinparam rectangle<<external_person>> {
    StereotypeFontColor #FFFFFF
    FontColor #FFFFFF
    BackgroundColor #686868
    BorderColor #8A8A8A
}

skinparam rectangle<<system>> {
    StereotypeFontColor #FFFFFF
    FontColor #FFFFFF
    BackgroundColor #1168BD
    BorderColor #3C7FC0
}

skinparam rectangle<<external_system>> {
    StereotypeFontColor #FFFFFF
    FontColor #FFFFFF
    BackgroundColor #999999
    BorderColor #8A8A8A
}

skinparam database<<system>> {
    StereotypeFontColor #FFFFFF
    FontColor #FFFFFF
    BackgroundColor #1168BD
    BorderColor #3C7FC0
}

skinparam database<<external_system>> {
    StereotypeFontColor #FFFFFF
    FontColor #FFFFFF
    BackgroundColor #999999
    BorderColor #8A8A8A
}
















skinparam rectangle<<container>> {
    StereotypeFontColor #FFFFFF
    FontColor #FFFFFF
    BackgroundColor #438DD5
    BorderColor #3C7FC0
}

skinparam database<<container>> {
    StereotypeFontColor #FFFFFF
    FontColor #FFFFFF
    BackgroundColor #438DD5
    BorderColor #3C7FC0
}








skinparam backgroundColor #EEEBDC
skinparam handwritten true
skinparam defaultFontName "Comic Sans MS"
center footer <font color=red>Warning:</font> Created for discussion, needs to be validated()

rectangle "==Developer\n\n Anyone willing to build the OHOS based image" <<person>> as dev
rectangle "==meta-openharmony\n<size:12>[System]</size>" <<boundary>> as meta_openharmonyn {
    rectangle "==meta-ohos-zephyr\n//<size:12>[meta-layer]</size>//\n\n OHOS configuration / adaptation layer for Zephyr" <<container>> as meta_ohos_zephyr
    rectangle "==meta-ohos-poky\n//<size:12>[meta-layer]</size>//\n\n OHOS configuration / adaptation layer for Poky" <<container>> as meta_ohos_poky
    rectangle "==meta-ohos-init\n//<size:12>[meta-layer]</size>//\n\n OHOS initialisation services for application devices" <<container>> as meta_ohos_init
    rectangle "==meta-ohos-init-lite\n//<size:12>[meta-layer]</size>//\n\n OHOS initialisation services for uC-based devices" <<container>> as meta_ohos_init_lite
    rectangle "==meta-ohos-softbus\n//<size:12>[meta-layer]</size>//\n\n OHOS softbus service for application devices" <<container>> as meta_ohos_softbus
    rectangle "==meta-ohos-softbus-lite\n//<size:12>[meta-layer]</size>//\n\n OHOS softbus service for uC-based devices" <<container>> as meta_ohos_softbus_lite
}
rectangle "==meta-zephyr\n//<size:12>[meta-layer]</size>//\n\n ZephyrOS meta-layer" <<container>> as meta_zephyr
rectangle "==yocto-poky\n\n distro scaffolding: predefined meta-data, bitbake build system" <<external_system>> as yocto

dev - -> meta_ohos_zephyr : "===1. selects OHOS Zephyr distribution\n//<size:12>[environment shell script]</size>//"
meta_ohos_zephyr - -> yocto : "===2. sets up bitbake environment for OHOS Zephyr\n//<size:12>[local.conf.sample, bblayers.conf.sample]</size>//"
dev - -> yocto : "===3. initiates the build\n//<size:12>[bitbake]</size>//"
yocto - -> meta_ohos_init_lite : "===4. incorporates Zephyr-compatible OHOS layers"
yocto - -> meta_ohos_softbus_lite : "===4. incorporates Zephyr-compatible OHOS layers"
yocto - -> meta_zephyr : "===4. incorporates"

dev -[hidden]D- yocto
dev -[hidden]D- meta_openharmonyn
meta_ohos_zephyr -[hidden]D- meta_ohos_init_lite
meta_ohos_init_lite -[hidden]D- meta_ohos_softbus_lite
meta_zephyr -[hidden]D- yocto
@enduml

PlantUML version 1.2018.13(Mon Nov 26 18:11:51 CET 2018)
(GPL source distribution)
Java Runtime: OpenJDK Runtime Environment
JVM: OpenJDK 64-Bit Server VM
Java Version: 11.0.9.1+1-Ubuntu-0ubuntu1.20.04
Operating System: Linux
OS Version: 5.4.0-53-generic
Default Encoding: UTF-8
Language: en
Country: US
--></g></svg>